P3
64 64
255
2 1 1 1 0 0 3 3 1 5 6 2 9 11 6 26 30 19 43 46 35 65 73 50 96 116 66 118 152 65 134 188 56 131 192 39 134 190 31 151 200 33 166 200 38 168 194 42 142 173 44 136 166 54 116 142 54 72 101 40 30 61 24 9 31 11 3 17 6 3 10 4 8 9 7 20 16 11 41 35 18 86 86 37 137 166 58 161 210 60 157 205 50 156 208 50 134 184 56 127 156 70 52 46 34 4 5 3 6 26 11 36 130 37 55 209 22 107 255 23 150 255 15 159 255 23 111 241 45 73 234 74 46 231 109 13 113 56 10 45 22 1 7 1 2 5 1 14 20 6 35 36 14 62 64 25 91 101 40 98 126 44 99 156 46 85 157 40 72 139 31 50 98 19 51 77 18 28 37 9 17 15 5 11 8 4 3 2 2 1 0 1 
5 8 7 2 4 3 1 3 1 0 2 0 2 5 2 10 17 9 22 30 20 44 54 36 67 82 46 94 122 52 125 166 54 137 188 45 141 192 38 149 194 37 154 190 39 147 180 41 144 181 52 144 179 60 122 149 57 76 100 39 34 58 22 14 31 13 5 15 7 3 8 4 4 4 3 13 10 7 29 24 13 61 59 27 105 126 46 137 180 55 150 199 51 159 212 59 136 194 66 103 133 59 29 30 19 2 5 2 14 45 18 75 189 60 103 255 33 149 255 22 186 255 12 196 255 21 137 248 43 91 241 74 54 229 105 17 112 57 6 27 13 1 3 0 5 12 2 29 40 14 64 70 29 104 108 45 135 146 58 131 163 55 124 183 53 108 179 48 115 193 54 90 144 41 79 108 36 47 56 19 26 27 12 13 12 7 3 3 2 3 2 3 
3 14 12 7 24 19 8 27 16 1 12 5 0 5 1 0 4 1 2 7 4 16 25 17 31 40 24 58 69 32 98 115 42 127 150 45 134 171 43 139 182 45 141 188 48 136 182 50 126 169 51 123 161 53 106 133 44 75 92 32 46 57 23 25 31 15 11 12 7 5 4 3 3 1 1 7 3 3 12 8 5 28 27 13 68 81 35 109 142 52 120 162 46 112 166 45 88 140 47 51 81 33 9 16 8 2 8 2 30 75 27 125 229 67 159 252 25 193 244 9 255 235 7 255 242 14 182 239 35 119 232 65 64 202 88 23 99 52 4 13 6 2 4 1 13 26 7 48 73 23 100 116 43 144 157 58 166 181 60 157 186 51 149 202 51 134 198 50 133 196 56 112 157 49 85 109 41 50 58 24 24 27 13 6 8 4 1 2 1 2 5 5 
7 40 28 16 65 45 14 65 37 6 42 18 3 28 11 1 12 4 0 4 1 1 5 2 11 17 11 27 31 15 58 61 24 88 96 33 105 125 37 112 149 44 113 164 52 116 173 60 124 181 69 107 152 56 88 118 38 69 82 27 40 45 18 17 16 7 4 3 2 1 1 1 4 4 3 3 4 3 2 3 2 3 8 3 21 34 16 57 80 36 78 106 36 75 108 33 56 90 33 24 47 19 3 12 5 5 19 7 47 113 41 135 239 64 175 250 23 220 248 9 254 231 6 255 233 11 182 226 29 118 216 53 52 156 61 16 63 31 2 5 2 8 9 4 27 48 14 67 108 33 118 147 46 155 175 51 171 186 47 168 190 41 164 208 45 150 202 45 139 184 50 128 166 56 91 109 44 49 59 26 21 27 14 3 6 3 1 4 2 6 18 14 
13 86 53 27 125 77 25 122 62 17 100 44 15 86 38 6 47 21 1 17 8 1 8 5 3 7 5 9 11 7 24 24 11 46 47 19 66 76 27 74 100 35 77 118 44 75 128 52 79 134 63 65 111 47 58 83 28 45 56 18 20 22 8 5 5 2 2 4 3 2 8 6 8 28 17 6 30 16 2 18 8 0 9 3 1 9 5 9 20 11 30 39 16 50 61 25 33 46 19 8 21 7 1 7 2 5 29 11 50 139 53 105 235 60 147 255 27 199 255 17 226 255 10 211 246 14 150 235 32 101 208 50 35 112 38 6 30 12 1 3 1 18 19 11 45 75 25 87 144 40 131 175 47 161 190 44 182 202 38 184 206 34 184 218 38 162 202 39 147 179 46 141 170 62 95 108 49 47 56 29 14 22 12 1 5 2 1 9 5 13 45 31 
23 134 64 49 200 101 53 208 93 51 192 79 42 162 65 24 102 40 12 56 27 7 30 18 1 6 4 2 5 3 6 7 3 17 18 7 33 38 15 42 59 24 45 73 32 46 84 40 37 73 39 35 65 30 33 51 16 21 29 7 4 8 2 1 3 1 4 15 10 18 55 36 24 88 42 34 123 56 27 112 55 7 53 27 1 15 9 0 5 3 3 7 2 14 15 6 12 15 6 2 6 2 0 4 1 8 37 18 54 156 72 86 228 71 112 255 40 137 255 26 164 255 22 157 255 28 118 235 44 78 183 51 22 78 27 2 13 4 2 4 2 27 30 18 56 95 32 102 164 49 144 192 50 169 204 42 194 218 35 194 220 32 186 220 33 157 192 33 149 177 46 139 163 61 82 93 44 37 45 24 6 13 7 0 4 1 2 19 9 22 75 51 
54 216 79 70 242 88 66 224 69 78 237 71 90 244 82 75 200 74 43 128 56 15 55 26 6 24 14 2 10 6 1 4 2 3 6 2 10 15 6 18 27 12 23 38 19 26 46 26 26 47 32 25 41 24 20 28 8 7 12 2 1 5 0 1 11 3 8 51 25 32 125 60 54 180 59 76 230 73 79 237 90 48 166 71 17 77 44 3 22 13 1 5 1 2 3 0 5 5 2 3 4 2 1 4 2 9 32 21 39 118 70 57 184 80 73 237 68 80 254 51 88 254 48 87 243 50 64 188 53 33 111 37 8 41 15 0 7 2 5 12 7 27 40 23 59 97 37 111 166 54 146 190 50 164 198 38 182 210 31 182 212 27 175 216 31 149 188 32 151 186 52 127 151 60 68 80 40 29 38 22 4 11 5 0 7 3 9 44 24 40 123 79 
68 224 54 94 255 67 97 246 50 107 244 48 102 224 47 93 211 54 85 200 74 48 131 57 25 81 44 7 31 17 1 6 3 0 3 1 2 5 2 7 11 5 11 17 10 14 22 14 12 18 15 11 16 9 7 9 1 2 5 0 1 10 2 6 43 17 29 130 60 65 216 84 100 255 61 103 250 45 94 234 49 84 222 69 64 183 95 26 90 51 6 21 9 2 4 1 2 2 0 3 2 1 0 1 1 2 9 6 9 40 25 22 90 46 51 172 74 62 210 79 53 199 65 53 184 64 33 118 46 11 50 20 2 16 6 0 3 1 9 20 12 27 45 24 64 98 44 119 164 63 147 184 55 154 184 39 163 190 29 166 200 27 166 216 34 146 196 38 125 166 48 95 122 49 47 58 29 19 27 16 2 8 3 0 8 3 15 63 33 51 150 92 
96 237 33 118 255 37 147 255 33 156 248 29 152 239 31 136 233 39 101 215 55 75 192 68 30 116 48 18 82 42 4 27 13 1 10 4 0 3 1 2 3 1 9 10 7 7 7 6 10 10 9 5 5 3 5 3 0 1 3 0 3 22 6 13 74 28 51 188 78 86 241 69 149 255 38 169 246 24 183 255 39 146 253 53 85 209 75 45 141 64 10 44 15 1 8 1 2 2 0 6 3 2 3 4 3 0 2 1 1 6 4 6 24 15 14 47 27 23 72 40 26 84 44 20 67 35 21 56 36 5 19 12 1 4 2 2 6 4 8 17 10 24 40 24 57 80 43 97 123 57 147 171 66 154 180 51 147 180 35 144 186 31 134 188 35 116 175 38 108 156 52 68 97 39 33 46 23 8 15 8 0 3 1 5 24 11 28 91 48 79 202 121 
125 241 22 152 255 23 188 255 19 197 246 17 198 239 18 171 239 27 119 228 42 81 214 59 52 186 74 24 122 58 6 51 24 3 22 11 1 6 2 1 1 0 4 3 2 4 2 2 5 4 5 4 3 2 5 2 0 3 3 0 9 33 16 25 102 49 55 200 81 81 219 55 161 246 32 191 241 19 191 255 28 143 236 37 95 226 70 55 164 71 14 56 21 3 13 4 1 2 0 8 6 2 10 14 7 6 12 6 3 8 4 2 6 3 1 5 3 1 6 3 6 17 13 4 12 9 6 14 12 3 6 5 1 2 2 3 5 4 10 16 12 27 40 27 41 54 33 67 84 44 106 122 55 128 150 52 141 175 49 142 192 50 124 186 47 100 159 45 76 116 42 47 75 32 22 34 17 5 11 6 0 4 1 7 29 12 31 102 51 77 206 113 
151 244 15 184 255 16 231 255 12 243 244 9 237 239 11 204 246 19 139 246 34 90 232 51 54 214 72 23 137 58 8 68 31 6 36 20 2 10 5 1 2 1 4 2 1 6 4 4 3 3 4 4 4 5 4 1 2 2 2 1 9 26 19 24 83 53 49 168 81 80 215 70 149 248 44 180 255 32 171 255 37 129 241 45 95 233 81 50 142 68 8 28 13 1 4 1 11 13 6 27 32 15 37 58 27 36 65 28 27 48 21 14 24 9 8 10 4 7 7 4 3 2 2 1 1 0 1 1 1 1 1 1 0 1 0 1 2 1 5 6 4 12 15 11 26 34 23 41 52 32 65 78 40 82 101 43 93 123 42 100 142 45 86 137 44 70 121 41 51 85 35 33 53 25 15 24 14 3 8 3 1 6 1 12 40 18 39 119 58 78 212 111 
161 239 13 196 253 13 246 248 9 254 237 6 255 235 7 216 248 14 146 250 29 93 243 48 63 237 80 27 159 67 14 87 43 7 41 23 2 9 4 1 1 0 3 2 1 7 5 4 4 6 7 7 8 10 5 3 4 1 1 2 2 8 9 7 33 24 26 100 55 78 206 90 103 211 52 130 232 46 125 246 50 98 219 56 72 186 78 27 86 44 4 12 7 2 3 2 21 27 14 44 59 25 52 88 32 61 109 37 65 109 38 51 80 28 40 45 20 27 23 14 15 10 7 7 4 4 3 3 2 1 2 1 1 2 0 1 3 1 3 4 3 3 4 4 7 13 9 15 24 14 31 42 23 43 59 27 50 71 29 52 80 30 48 81 31 44 77 32 36 60 29 24 38 20 12 17 10 2 5 2 1 8 2 15 52 23 43 135 64 73 218 109 
154 239 14 188 251 14 241 246 9 255 237 6 252 237 7 216 248 13 146 250 28 95 246 48 63 226 78 30 155 70 16 85 45 5 29 16 1 5 2 1 2 1 5 4 2 9 10 6 9 13 9 11 17 14 8 8 7 4 4 4 2 5 5 1 10 8 5 34 21 30 108 57 52 156 61 68 188 65 73 204 73 52 159 60 26 88 43 6 24 13 3 5 5 14 13 12 45 57 32 90 124 55 104 161 57 108 180 55 112 190 57 101 161 52 78 109 45 44 54 25 21 22 12 9 10 6 1 3 1 0 1 0 0 2 0 0 3 1 1 4 3 0 2 1 0 4 2 1 7 2 5 13 5 12 23 10 21 33 16 26 43 20 28 46 24 28 45 24 25 35 22 17 22 14 8 9 5 1 3 1 2 10 3 16 55 24 38 138 67 65 222 109 
142 235 18 175 251 18 228 250 12 248 242 8 243 239 8 210 250 14 142 255 29 95 241 50 58 210 72 27 131 60 12 61 35 2 14 8 0 3 1 4 6 3 11 14 8 20 24 12 21 31 14 25 35 17 20 25 13 17 22 14 8 13 9 2 8 5 0 7 4 2 19 9 8 48 20 14 71 31 27 99 48 19 71 34 5 24 10 0 4 2 3 5 3 30 34 25 54 75 37 119 166 72 137 190 63 129 190 50 120 192 45 109 173 47 96 144 56 56 80 36 33 42 24 14 18 10 2 5 1 1 5 1 2 10 3 5 18 9 9 25 19 5 17 14 2 14 6 1 9 2 0 5 1 1 5 1 3 8 4 8 15 9 14 22 14 17 24 17 17 18 14 11 11 8 6 6 4 1 2 0 3 13 4 14 57 24 32 143 68 58 235 118 
125 235 24 157 253 23 210 253 15 228 244 11 222 244 10 192 250 17 133 248 31 91 232 51 70 214 85 25 109 55 9 40 25 1 8 5 1 3 2 10 14 8 20 28 16 32 43 19 63 68 22 69 79 24 55 75 24 52 77 29 31 47 18 19 29 13 5 10 4 2 6 3 0 5 2 1 7 4 4 14 10 4 12 7 2 5 2 2 5 1 8 17 6 36 59 27 58 95 38 130 177 70 149 175 50 155 179 42 152 186 44 129 175 49 116 170 71 72 108 57 28 40 25 8 12 8 1 2 0 3 9 3 8 28 13 12 48 27 22 73 56 19 73 52 21 74 43 12 46 22 5 21 9 2 9 4 1 5 3 2 4 3 4 6 6 8 8 9 12 8 9 8 5 5 6 4 3 1 2 0 4 15 5 11 54 22 25 135 62 49 235 116 
101 239 29 130 255 31 175 255 24 192 248 19 190 246 18 166 253 26 115 244 41 81 222 60 51 173 73 13 68 34 3 19 12 1 4 3 3 6 4 23 31 18 41 64 31 66 92 37 105 118 34 122 134 37 102 134 39 96 134 44 67 92 30 64 85 33 35 44 19 15 21 11 6 10 7 2 4 3 1 2 1 0 1 0 1 2 0 6 10 3 13 27 10 24 48 17 63 93 38 121 152 61 126 145 43 154 169 50 164 192 57 134 167 54 105 144 62 53 79 39 28 40 25 5 10 6 0 2 1 6 18 9 21 59 32 28 91 48 48 149 87 57 171 95 49 147 61 45 127 51 33 93 45 17 52 28 4 18 11 1 4 3 1 2 2 3 2 3 7 4 5 6 2 2 5 2 2 1 1 0 5 13 6 9 42 20 18 114 55 37 212 108 
66 237 34 94 255 41 131 255 39 159 255 44 146 244 39 121 235 44 93 241 65 61 201 70 28 125 58 7 50 27 0 7 4 2 5 4 18 22 13 45 55 26 73 111 43 100 149 48 122 155 41 164 190 54 152 175 51 144 171 53 121 161 52 93 133 45 67 101 36 34 49 16 21 25 9 10 10 3 7 7 3 2 4 1 1 3 1 2 7 2 5 13 5 23 33 16 51 53 24 101 104 49 105 134 58 111 152 63 118 157 65 115 145 63 99 112 52 44 51 22 20 28 14 1 4 1 2 11 6 13 42 26 37 96 52 73 175 85 72 195 72 86 231 67 87 226 49 85 224 51 65 194 66 32 127 53 11 64 34 4 30 20 3 9 6 1 1 1 2 1 1 6 3 2 4 2 2 1 1 1 5 7 6 10 30 21 10 79 43 34 194 111 
54 235 46 71 251 53 92 239 50 105 239 53 100 224 51 92 224 59 75 226 75 47 173 70 14 81 38 1 22 10 0 5 3 7 12 8 40 45 25 81 93 40 104 144 47 130 190 50 150 207 44 170 216 45 155 180 38 157 179 46 145 186 58 121 164 56 96 134 50 62 80 31 34 32 13 13 10 3 6 5 2 2 3 1 0 3 1 1 5 2 2 6 3 6 12 5 15 17 5 35 41 16 42 65 30 57 91 47 66 95 49 61 79 39 59 61 29 32 33 14 12 17 7 0 3 1 2 15 8 18 62 35 50 134 65 93 218 85 93 226 54 108 246 41 130 255 33 121 255 36 102 250 64 69 210 76 32 138 65 14 74 41 7 26 16 3 7 4 1 1 0 1 1 0 1 1 0 0 0 0 4 4 5 9 22 19 8 58 35 19 127 75 
35 179 45 53 216 61 70 230 65 82 244 70 82 237 68 75 220 70 57 184 68 29 111 43 9 49 22 0 8 2 1 6 3 18 28 15 68 78 37 121 135 54 136 164 46 163 210 45 159 228 29 164 237 27 163 208 29 173 208 44 171 206 60 142 169 65 111 125 60 72 76 43 46 40 29 11 8 6 3 3 2 2 3 3 1 6 4 2 9 5 1 6 3 0 5 1 1 7 1 3 11 2 7 16 6 19 32 19 31 41 28 28 34 21 26 27 15 18 20 9 5 7 2 0 3 1 4 24 12 25 91 46 58 177 69 100 255 76 119 255 44 156 255 31 173 248 19 166 230 19 147 239 41 118 235 69 66 188 73 29 114 53 11 45 23 3 15 7 1 4 1 1 2 1 1 2 1 1 2 1 2 3 2 5 14 9 6 39 23 15 84 49 
19 112 37 37 161 61 51 206 74 61 228 82 60 220 79 54 190 70 40 134 53 15 61 24 6 26 12 0 4 1 5 14 6 32 47 23 78 96 38 138 159 54 148 169 40 175 214 36 152 218 17 164 239 18 171 228 27 173 214 39 166 192 55 141 157 64 93 102 55 54 59 39 17 19 16 3 5 4 2 5 4 7 19 14 18 46 30 30 73 43 27 71 36 15 51 19 4 29 6 1 15 2 0 5 1 1 5 3 5 8 7 7 9 8 9 9 5 8 8 4 3 3 1 1 4 1 8 31 17 29 100 50 54 180 63 90 246 59 122 255 33 179 255 25 218 255 12 213 235 12 184 235 27 142 235 48 86 216 67 48 159 65 19 75 37 5 27 14 1 7 3 0 2 1 1 3 2 1 3 1 0 1 0 1 3 1 2 17 9 11 51 31 
11 60 31 24 102 54 29 140 67 31 161 72 28 150 62 29 131 56 27 87 43 11 35 16 2 8 3 1 3 1 14 26 12 44 68 28 79 112 35 141 183 51 162 188 39 190 218 32 173 224 16 179 239 17 179 228 26 159 194 33 155 173 53 134 147 68 69 80 46 25 38 25 1 7 3 1 11 6 5 33 16 26 91 45 53 151 67 72 194 77 77 210 68 59 180 52 43 152 49 20 82 29 6 26 13 1 6 5 1 3 4 2 3 4 3 3 2 4 4 2 2 2 1 1 4 2 6 24 14 23 80 40 50 162 57 84 230 53 118 255 29 166 255 16 226 255 8 245 253 9 218 246 19 156 228 30 96 228 51 67 200 72 28 106 50 6 35 19 1 9 5 0 1 0 1 3 1 3 6 2 1 2 0 0 2 0 1 7 3 7 24 15 
5 22 18 12 46 35 14 80 47 17 104 57 16 101 50 15 81 41 16 48 27 6 15 8 1 2 1 3 5 2 26 38 18 55 86 35 83 128 37 134 188 48 159 198 39 175 208 29 188 229 24 180 222 22 175 218 35 154 186 41 144 157 58 103 114 56 28 37 20 3 11 5 0 8 2 6 47 20 33 119 51 71 196 77 94 224 66 97 221 47 105 241 39 94 239 40 81 242 68 60 190 74 43 117 69 14 42 34 4 12 13 2 4 6 2 2 1 2 2 1 2 2 1 1 2 1 1 8 5 11 40 23 41 118 49 83 206 58 112 255 39 147 255 21 184 250 8 222 255 9 213 255 18 154 233 26 97 232 46 71 218 71 30 116 53 5 34 18 2 10 7 0 2 1 2 4 1 7 10 4 6 7 3 3 4 1 1 3 1 2 6 4 
2 4 6 5 13 14 6 31 23 9 52 35 9 56 33 8 41 24 8 22 14 2 4 3 3 2 1 10 9 5 29 39 18 57 86 35 83 137 44 113 179 47 139 192 40 152 190 35 177 200 36 160 180 33 157 190 50 128 157 51 93 105 45 45 52 25 7 12 4 0 5 1 3 29 8 35 124 46 81 206 68 122 246 62 173 255 45 188 246 25 210 255 18 189 255 27 87 221 36 67 211 68 61 186 92 26 91 56 6 26 20 2 6 5 1 1 0 2 2 0 3 4 2 2 3 2 1 3 4 4 12 11 18 48 28 47 115 45 79 203 48 108 255 35 137 255 18 168 255 16 182 255 26 146 255 34 96 253 55 72 222 76 34 116 57 9 36 22 2 6 5 2 2 2 5 5 2 10 11 4 13 12 5 9 9 4 3 3 2 1 2 1 
2 1 2 2 3 4 1 7 6 3 16 12 3 21 14 4 18 12 5 10 8 2 2 1 6 3 3 16 12 8 26 30 16 51 73 32 86 131 49 104 162 49 130 190 51 145 190 50 161 177 55 137 144 48 130 154 62 90 112 49 46 52 25 14 19 9 3 7 2 3 15 4 21 85 30 75 212 77 98 237 61 120 230 36 194 253 27 223 246 15 243 246 8 199 252 13 128 255 47 78 239 72 60 202 88 24 102 53 7 32 18 2 9 5 2 3 1 6 6 2 10 12 5 8 10 7 2 4 5 1 3 6 4 12 10 15 44 21 42 131 41 78 224 50 99 254 32 115 255 27 133 253 35 119 243 44 81 234 59 57 192 68 29 100 50 11 33 23 2 3 3 6 4 4 14 12 6 16 16 6 21 21 8 24 24 14 12 13 10 7 8 7 
13 8 8 5 4 3 1 2 1 0 3 1 1 6 4 1 4 3 1 1 1 2 1 1 7 4 4 13 9 7 31 29 18 40 45 22 61 82 33 90 130 51 92 137 46 127 164 65 130 141 69 100 104 55 68 85 45 46 61 34 15 21 11 2 4 1 3 9 3 12 38 15 35 122 45 69 215 70 102 255 63 134 255 46 186 253 27 215 246 16 248 255 11 200 255 17 122 255 51 72 232 73 45 169 69 21 90 42 4 24 10 0 4 1 2 5 0 13 16 4 21 26 9 21 27 14 19 22 22 9 11 16 2 4 5 1 6 4 7 41 15 32 127 41 58 207 50 85 253 58 96 219 53 96 222 66 77 226 81 51 173 75 26 87 49 5 19 12 1 1 1 11 7 5 18 17 7 28 29 12 35 38 17 32 35 18 26 29 21 17 20 17 
32 27 17 18 16 8 5 5 2 2 3 1 1 3 1 1 1 1 1 1 1 2 2 2 6 5 4 11 8 7 25 21 14 32 32 18 48 54 28 61 79 37 52 76 30 67 92 44 70 78 47 49 53 35 28 38 24 15 23 14 4 8 4 1 4 1 6 17 8 20 59 28 41 142 57 72 231 82 92 254 75 111 255 55 142 243 37 160 232 25 171 239 18 139 226 22 88 230 52 62 202 73 37 127 55 10 50 20 2 11 4 1 5 1 8 14 2 28 36 10 37 49 16 44 54 24 47 55 39 34 42 37 13 21 20 3 10 7 1 13 5 1 24 5 21 107 35 51 180 65 85 198 82 87 196 89 58 177 82 34 125 63 18 62 38 4 15 10 1 2 1 13 12 7 23 26 10 35 44 17 48 58 25 46 55 27 40 50 31 29 38 25 
39 50 19 29 37 13 16 18 6 8 9 3 5 5 2 2 2 1 1 1 1 1 2 2 2 2 2 4 4 2 9 8 5 15 12 8 24 22 13 29 32 18 24 32 16 31 42 24 27 33 21 19 24 16 9 15 9 3 7 3 1 3 1 1 5 2 10 24 13 26 70 38 28 110 49 47 180 77 58 213 80 69 235 79 90 246 73 92 241 63 95 242 55 78 222 54 46 177 61 34 133 60 18 59 30 4 14 6 1 4 1 5 9 2 24 35 10 50 69 21 78 102 33 86 111 41 90 116 54 77 105 57 48 74 44 19 38 21 4 13 5 0 6 1 2 24 8 16 67 35 47 106 66 59 125 80 39 115 70 19 77 45 8 34 20 1 7 3 2 6 2 15 22 11 29 45 17 47 73 28 70 93 40 71 95 44 65 91 47 51 77 40 
50 79 24 44 64 20 31 37 13 20 20 8 12 11 6 4 4 3 1 2 1 1 3 1 0 3 1 1 4 1 2 4 2 4 5 2 6 7 3 7 8 4 6 9 5 9 15 9 7 11 6 5 10 5 3 7 4 1 4 1 1 2 1 2 6 3 8 20 11 15 43 23 20 69 36 33 114 59 38 138 68 45 159 73 52 173 79 46 162 67 40 154 57 30 128 49 20 105 50 11 59 30 4 15 9 1 3 1 3 4 2 17 19 8 44 60 22 66 94 30 112 151 49 122 164 50 125 171 56 116 166 60 97 149 62 68 104 45 31 47 19 9 20 8 0 6 2 2 14 8 10 27 20 24 52 41 24 67 50 13 46 32 3 16 8 0 3 1 3 10 3 20 35 14 36 69 27 64 104 40 95 128 55 101 133 56 93 133 57 79 121 48 
86 139 48 67 104 35 44 56 20 25 28 12 14 14 7 4 5 2 1 3 1 0 4 2 0 5 1 1 9 2 1 8 2 1 6 1 1 4 1 0 2 1 0 2 1 0 2 1 1 3 1 1 3 1 1 2 1 0 2 0 1 2 0 1 4 1 3 7 3 4 11 5 7 17 10 14 30 19 14 35 22 17 48 30 20 60 37 17 57 36 16 53 33 11 45 29 5 36 24 2 16 10 1 4 3 4 3 2 13 9 6 34 33 17 61 80 35 86 127 45 116 164 48 137 194 47 150 212 46 149 209 47 141 200 52 119 164 50 79 97 33 41 54 21 5 13 5 1 6 3 2 6 4 6 15 14 10 27 24 6 20 15 1 7 3 0 3 1 6 16 5 26 51 21 49 92 37 82 131 55 124 154 67 130 157 62 121 168 55 104 159 45 
107 168 60 82 123 45 57 71 28 35 38 17 16 16 9 3 4 2 0 3 1 1 9 3 3 25 10 9 47 20 10 51 20 11 49 20 12 42 20 9 29 14 6 20 12 4 12 8 2 5 3 1 2 1 0 1 0 1 1 0 1 2 1 1 3 1 1 3 1 1 3 1 1 2 1 3 4 2 1 3 2 2 6 3 2 10 7 2 10 8 3 12 10 3 11 10 1 7 7 0 3 3 2 2 2 10 6 5 24 18 12 40 39 20 70 91 42 111 159 64 122 182 49 146 210 43 162 226 35 161 216 29 157 204 33 149 190 40 122 147 41 88 109 41 32 45 19 7 13 6 2 5 3 2 4 4 2 6 5 1 4 3 1 2 1 4 6 2 12 23 8 36 64 26 63 109 48 101 149 65 149 168 70 155 171 60 141 190 49 121 184 38 
112 162 61 90 125 48 69 79 35 43 44 23 15 15 8 2 3 1 1 7 3 7 30 15 9 56 25 20 106 48 22 120 50 25 126 55 31 124 61 27 95 51 20 65 40 10 31 21 9 13 11 3 3 3 2 1 1 4 3 3 5 9 6 5 11 6 4 12 6 5 13 6 9 10 6 10 10 6 5 5 3 3 5 2 1 5 2 0 3 1 0 2 1 0 2 1 1 2 2 1 1 2 3 3 2 12 10 6 24 21 11 37 41 19 69 88 43 111 159 64 124 196 54 144 220 41 171 222 26 180 212 19 188 204 23 182 204 33 147 194 45 122 172 55 64 93 32 23 38 14 7 14 6 2 4 2 0 2 1 1 1 1 2 1 0 10 8 3 19 25 9 49 70 30 80 115 53 121 152 69 171 166 69 173 171 51 154 196 40 134 198 29 
136 185 75 108 137 58 78 80 41 40 37 23 8 9 5 0 2 1 2 15 6 21 77 36 41 142 59 67 220 86 62 224 79 59 224 78 62 218 86 51 175 77 35 116 60 17 51 29 12 18 16 5 4 4 3 1 1 8 7 5 18 23 15 19 33 17 19 38 17 27 46 22 28 34 17 33 35 19 20 22 12 14 18 9 9 15 7 3 7 3 3 5 2 3 3 2 3 2 3 3 1 2 4 3 2 10 8 5 22 20 11 37 41 19 64 84 37 93 136 49 116 186 48 137 212 37 179 227 29 208 231 25 222 228 29 208 222 34 154 201 37 121 175 41 86 120 39 40 62 20 17 29 10 3 8 3 1 3 1 3 3 2 5 3 1 14 10 4 24 25 10 57 70 32 86 116 51 123 154 65 164 170 63 164 173 49 154 196 40 139 197 30 
125 171 67 86 106 42 79 67 41 38 29 23 1 4 3 2 14 7 7 54 21 30 139 48 72 213 60 89 239 52 92 250 43 92 255 46 79 255 56 66 226 62 48 154 54 22 69 28 12 21 14 1 1 1 7 8 4 20 22 10 33 41 18 44 60 22 61 86 33 59 85 31 60 83 31 46 63 25 36 49 22 26 36 17 15 20 11 9 11 6 6 6 5 4 3 3 3 2 2 3 1 2 5 2 3 5 2 2 13 10 7 33 33 17 43 58 20 71 105 30 118 177 45 134 196 37 155 203 31 184 218 31 214 231 38 198 218 35 166 198 30 154 190 41 118 151 52 50 72 25 20 36 12 7 15 4 2 6 2 2 4 1 4 4 2 10 8 4 23 22 9 42 50 19 80 108 40 118 164 57 141 186 60 142 190 54 146 196 51 147 206 52 
135 181 76 89 109 46 66 54 35 17 13 10 1 4 2 4 28 14 24 111 43 68 212 65 121 243 47 155 255 36 150 255 24 138 255 28 106 255 43 86 255 61 61 186 65 29 89 39 5 13 6 1 3 1 12 16 7 32 41 17 60 74 29 79 102 37 100 131 46 96 133 45 88 125 45 71 105 41 52 74 31 37 50 24 25 32 18 15 16 10 7 6 5 4 3 2 1 1 1 1 1 1 2 2 2 1 1 1 3 3 2 10 14 6 22 34 10 53 81 24 92 134 35 130 177 43 166 210 48 179 214 44 184 214 41 175 204 34 162 196 28 159 190 39 115 140 46 54 71 26 22 36 11 7 14 4 2 5 2 2 4 2 3 3 2 5 5 2 23 23 12 34 40 15 58 79 27 89 128 42 116 167 54 131 182 59 133 173 54 126 164 48 
83 119 42 54 73 26 33 33 17 4 5 3 1 7 3 14 52 23 66 164 57 119 220 51 186 218 25 241 237 19 237 237 13 199 248 19 140 255 38 97 235 60 48 155 64 14 60 28 1 8 3 4 7 3 23 34 15 55 76 32 95 125 50 115 152 56 122 166 57 122 170 58 113 162 60 101 144 58 68 95 40 43 59 27 31 41 22 16 17 10 4 4 3 2 2 1 1 3 2 1 5 3 2 7 5 0 4 3 0 4 2 1 6 2 6 14 5 24 39 13 60 79 27 105 128 42 152 180 58 161 190 52 157 194 44 161 206 41 161 208 37 149 188 41 124 141 48 67 74 30 28 35 15 7 9 4 1 2 1 1 2 2 1 1 1 1 1 1 4 5 2 13 17 6 37 49 21 73 93 39 105 133 54 127 152 59 141 159 58 148 163 57 
52 72 24 30 42 14 16 20 9 2 6 2 3 23 9 27 96 40 94 214 71 129 217 40 226 226 22 254 237 14 254 231 10 233 242 18 160 255 41 103 228 65 41 133 61 7 42 21 0 5 1 7 16 5 36 55 24 74 105 44 116 159 63 130 178 63 127 177 56 128 179 57 116 167 56 114 161 63 72 102 41 41 58 24 28 38 19 10 14 7 2 3 1 1 2 1 3 11 6 4 21 13 6 32 20 4 29 18 2 19 10 0 10 4 1 7 2 4 11 3 31 39 17 66 74 32 112 127 53 127 154 53 133 171 50 151 202 54 144 197 44 116 155 35 85 96 31 44 47 18 16 19 9 3 4 3 1 2 2 2 6 7 3 9 8 4 11 7 0 3 1 2 7 2 10 20 8 29 43 20 55 67 32 75 85 37 88 89 34 91 88 31 
40 42 17 16 20 7 4 8 3 0 6 1 4 42 16 24 123 46 80 241 71 113 241 40 210 255 26 255 244 16 228 224 11 195 233 18 140 239 41 88 202 63 34 109 56 4 30 16 0 5 1 13 26 9 45 69 29 88 128 51 125 177 64 137 196 63 133 192 57 134 194 58 119 173 55 118 168 63 78 111 42 41 60 24 22 33 14 5 10 4 2 3 1 2 7 4 5 27 14 9 55 29 13 78 42 14 84 47 10 67 37 3 33 17 1 11 6 1 4 2 8 10 6 26 27 16 65 73 39 95 114 52 101 139 51 112 166 52 102 155 40 75 110 27 62 71 26 22 24 10 4 7 4 1 4 4 2 11 13 11 36 38 14 51 40 13 55 35 2 23 10 1 14 5 0 7 3 2 10 5 14 23 15 38 42 26 50 46 23 49 41 18 
17 12 7 6 6 3 1 2 1 0 9 3 5 56 24 22 136 51 64 237 75 98 254 57 156 246 35 186 239 26 177 232 23 161 243 35 106 222 51 54 147 47 15 60 28 1 10 4 2 9 2 23 40 16 55 83 34 105 149 61 127 180 63 137 198 61 141 198 58 139 196 57 125 175 55 114 157 56 75 108 40 38 59 23 13 23 9 2 6 2 2 6 3 7 21 12 12 55 27 21 104 48 25 131 61 30 147 68 31 137 68 20 90 45 11 42 24 5 15 9 1 2 1 4 6 4 24 29 18 52 67 38 62 88 39 69 105 38 67 105 32 50 77 21 41 50 20 8 12 4 1 5 3 2 12 10 12 47 41 35 105 81 36 120 70 31 117 54 29 115 48 11 63 24 1 21 8 0 8 4 1 7 5 6 11 9 17 17 10 23 20 10 
7 2 3 5 3 3 1 2 2 2 14 9 6 52 27 15 111 48 39 184 72 64 224 73 96 222 62 111 228 57 108 230 57 103 241 67 62 184 59 23 94 31 6 29 12 0 3 1 7 15 6 32 48 20 61 86 34 116 156 66 121 164 56 131 181 56 139 186 56 131 177 51 125 166 54 95 128 43 62 88 33 31 49 18 6 14 4 0 4 1 2 9 5 12 40 24 23 99 44 43 173 72 51 194 72 56 203 74 66 206 79 60 173 70 48 119 60 26 61 35 3 12 7 1 5 3 4 8 4 16 26 14 27 40 19 35 52 23 36 54 20 24 39 13 9 17 4 1 4 0 1 10 4 10 49 30 41 130 81 71 200 105 77 210 76 85 224 67 83 220 65 59 172 56 26 100 40 6 40 18 0 10 6 0 3 2 1 2 1 2 3 1 
3 1 2 4 2 3 0 1 1 1 7 5 1 19 9 5 46 20 17 90 40 35 128 56 66 170 78 65 166 69 51 159 62 42 152 60 20 100 37 6 43 15 4 15 6 1 3 1 9 14 6 32 42 19 57 73 32 117 148 66 114 148 53 127 166 54 141 181 58 128 164 52 124 158 56 80 104 36 52 71 27 27 42 18 3 11 3 0 3 1 3 14 8 18 58 34 34 134 55 69 233 82 82 241 72 90 235 62 102 239 63 102 226 67 86 194 72 49 120 51 26 68 36 2 12 5 0 3 1 3 8 4 11 16 9 19 24 13 18 22 12 8 12 4 3 9 2 0 7 1 5 34 14 35 121 65 71 208 96 88 230 78 101 230 45 138 255 47 111 230 34 104 224 45 74 192 66 38 124 56 12 55 33 3 19 11 1 6 3 1 3 1 
2 1 2 6 4 5 4 3 4 1 3 2 0 2 1 0 4 2 4 17 10 10 29 17 17 41 27 15 45 26 15 60 33 14 66 35 7 43 21 1 15 6 1 4 2 3 3 1 14 16 8 29 32 17 50 57 27 86 102 45 116 138 59 124 149 57 131 154 56 115 134 48 105 122 48 72 87 35 35 46 19 18 30 14 1 6 2 0 6 2 7 28 19 29 88 52 58 188 73 74 228 62 115 246 52 136 248 41 146 246 37 136 244 41 106 230 53 81 206 67 34 121 45 10 53 21 2 15 6 0 3 1 2 3 2 11 10 8 11 8 8 4 5 3 0 2 0 2 19 3 10 60 20 45 154 60 88 232 71 116 248 46 177 255 29 188 255 16 186 250 17 170 255 29 116 232 52 71 180 63 34 111 52 8 41 19 1 9 3 0 3 1 
6 5 3 11 11 8 13 13 9 13 14 10 10 13 8 6 9 5 5 8 5 2 4 2 2 4 2 2 6 4 1 10 5 1 10 5 0 7 3 0 3 1 2 2 2 4 3 2 12 11 7 25 26 15 38 42 21 57 66 30 70 85 34 85 98 37 104 118 48 97 108 45 74 82 35 54 61 28 27 35 16 14 23 12 1 6 2 1 9 4 8 38 27 35 109 62 66 204 71 92 239 52 144 246 38 175 246 26 188 246 20 168 250 24 121 250 36 85 232 52 51 186 62 17 89 32 5 30 12 1 6 3 2 2 1 6 3 4 5 2 4 3 2 2 1 3 1 5 24 8 17 76 29 56 179 65 95 246 63 120 250 35 188 255 20 211 255 12 220 255 15 178 248 21 119 228 42 81 197 62 41 126 57 8 41 19 2 8 3 1 4 2 
16 22 7 30 39 17 37 47 22 47 56 29 50 56 30 43 47 25 32 33 17 15 15 6 10 10 4 7 8 3 3 6 2 1 4 2 0 2 1 1 2 2 4 2 4 5 3 4 5 5 3 12 14 8 18 23 11 29 37 16 39 50 20 50 61 25 63 71 30 55 60 27 49 49 24 38 38 22 22 24 14 9 15 8 0 5 2 1 13 6 12 49 35 41 127 68 76 216 70 108 246 47 173 248 29 214 246 17 224 246 11 202 255 14 136 255 26 92 255 44 64 239 72 25 131 45 12 54 22 3 13 5 2 2 1 4 1 2 3 1 2 2 1 3 2 3 4 8 21 13 20 70 37 53 162 68 82 228 64 105 245 40 161 255 26 188 255 19 186 255 20 152 246 26 108 230 50 77 196 70 32 104 50 4 24 13 1 5 3 5 6 6 
38 56 14 68 94 32 88 115 44 104 127 52 108 128 54 111 124 55 109 119 55 86 91 41 57 58 24 35 37 15 16 18 8 9 9 5 5 6 5 3 3 4 2 1 3 1 1 2 2 3 3 3 6 3 3 7 2 8 16 5 17 27 11 24 35 14 35 42 20 34 36 18 35 33 20 29 27 19 18 19 14 6 9 6 0 3 1 2 14 8 12 52 33 41 126 65 83 220 72 116 248 46 186 250 24 230 246 12 241 246 7 216 255 10 147 255 23 97 255 41 59 228 65 30 144 52 17 69 30 5 17 8 2 3 1 4 2 2 4 1 3 4 2 4 2 2 4 5 10 10 14 43 27 39 119 56 73 202 71 100 245 60 130 255 43 139 253 32 137 241 35 125 241 47 91 216 66 50 146 58 12 51 24 1 8 4 2 5 4 19 17 19 
78 109 27 118 159 48 141 184 57 151 196 60 144 190 52 134 180 49 130 179 52 105 147 44 81 115 37 49 69 23 26 34 13 17 19 10 8 8 6 2 2 2 1 1 1 1 2 2 1 4 2 0 4 1 0 2 0 0 4 0 1 6 1 2 7 1 8 13 5 14 17 9 22 20 15 20 16 14 14 14 12 4 6 4 0 2 1 2 15 7 12 52 29 41 125 60 83 218 71 118 246 47 184 253 23 222 253 11 235 255 6 216 255 10 152 255 24 107 255 47 63 212 69 34 136 59 17 63 32 3 13 5 1 2 1 4 4 2 6 5 4 5 4 5 3 2 4 2 3 5 4 15 11 16 53 29 43 130 59 72 198 78 81 216 68 84 216 62 85 216 69 81 206 76 50 147 65 16 66 29 2 17 8 1 6 3 12 15 13 58 52 52 
128 171 45 151 200 53 157 201 46 168 214 43 168 216 39 154 207 36 142 208 41 112 174 39 97 157 48 62 102 37 38 55 25 21 26 15 6 7 5 1 1 1 2 4 2 6 16 10 6 24 14 6 26 14 3 21 8 3 20 8 1 11 3 0 5 1 2 6 2 4 7 4 10 9 8 9 7 6 9 8 8 3 4 3 0 2 0 3 15 7 11 47 23 39 119 53 80 206 70 113 237 48 171 255 24 210 255 12 222 255 7 206 255 11 154 255 27 112 241 51 78 210 85 33 116 60 10 44 23 1 7 3 0 2 0 5 8 3 9 12 6 9 11 8 9 9 9 2 3 3 1 3 2 1 8 3 6 31 12 22 79 35 32 110 49 43 139 66 43 136 72 33 109 61 12 52 28 2 15 6 1 7 2 6 13 6 38 46 28 99 104 73 
147 192 50 161 202 47 162 194 31 188 214 30 200 220 26 184 216 24 170 224 36 138 208 45 104 173 57 65 115 50 34 55 33 12 20 14 2 5 3 1 3 1 3 13 4 15 45 21 13 53 28 19 72 43 19 72 41 16 62 33 7 37 17 2 15 6 1 6 2 0 1 0 3 3 3 3 2 2 7 5 6 2 3 2 0 1 0 3 14 5 7 36 13 30 98 39 73 190 65 102 224 47 154 255 25 186 255 13 197 255 8 188 255 12 145 244 31 109 216 57 77 177 90 21 72 46 4 21 13 0 6 3 2 7 2 10 20 8 17 31 13 21 36 17 25 38 20 12 18 8 6 9 3 2 4 1 2 5 1 4 13 6 5 23 14 12 41 32 12 40 35 7 27 23 2 9 7 1 3 1 4 8 2 20 30 8 58 81 28 105 142 58 
133 169 42 156 190 45 175 202 37 208 233 39 204 229 31 164 197 23 145 199 32 126 191 44 101 159 59 62 100 49 26 41 27 7 13 10 2 5 3 2 9 4 8 38 14 22 84 34 32 120 54 48 156 76 49 150 71 42 134 62 35 112 53 23 78 38 11 39 22 2 10 6 1 3 2 1 1 1 6 4 4 3 3 2 0 1 0 2 10 3 5 25 9 23 75 31 63 175 70 83 213 58 124 250 37 147 255 24 157 255 18 149 255 24 119 232 43 95 197 68 59 136 77 10 41 25 2 10 5 1 7 3 8 17 5 23 40 16 33 57 24 44 71 30 42 68 27 37 53 21 42 47 23 20 22 10 6 8 3 2 4 2 0 2 1 1 5 5 2 8 9 1 5 6 1 2 2 3 3 2 13 14 5 33 45 15 61 98 28 92 154 48 
127 157 45 146 179 53 152 184 49 160 201 49 150 201 45 131 190 41 130 196 53 119 177 60 72 102 41 53 69 36 22 24 15 3 5 3 1 5 2 5 27 13 20 93 48 35 155 67 59 224 75 62 226 63 69 216 60 84 233 74 69 210 74 39 147 57 17 85 40 5 33 17 2 9 7 1 3 3 1 1 0 5 4 2 1 3 1 0 3 0 2 10 4 18 57 31 35 125 61 61 198 78 92 253 72 103 255 57 91 248 42 86 243 48 86 241 75 65 184 79 29 89 47 2 12 5 1 5 1 9 12 4 26 31 10 52 64 24 63 91 35 76 115 47 85 122 50 80 109 49 54 68 36 38 46 28 29 36 25 10 15 10 2 5 2 2 5 3 0 1 0 1 1 1 3 2 3 6 5 5 14 16 10 23 35 15 36 72 21 59 121 37 
88 111 38 110 135 49 113 141 48 122 159 52 125 173 58 112 164 56 93 146 52 66 101 37 53 70 32 33 40 20 11 12 6 2 4 1 2 10 3 9 49 23 25 133 68 44 207 83 72 255 67 90 255 52 104 246 45 112 248 50 93 239 56 69 208 64 39 156 68 15 79 42 5 25 18 2 7 7 1 1 1 4 3 2 2 3 1 1 2 1 1 5 4 8 26 18 18 78 43 38 149 71 64 211 80 73 239 75 70 241 68 72 243 76 59 201 81 28 110 48 10 45 22 1 8 2 4 7 2 22 24 8 54 58 21 96 111 45 112 151 63 127 181 73 116 160 58 111 150 58 100 128 64 73 92 53 45 55 37 25 32 22 13 17 9 6 9 4 4 4 3 2 2 2 1 1 1 1 1 2 4 6 4 7 15 7 16 37 12 34 72 26 
12 19 4 34 44 17 55 67 27 72 87 36 77 95 39 68 89 35 53 79 30 32 51 18 24 34 14 10 15 5 3 4 1 1 5 1 5 24 8 19 84 36 37 180 81 65 250 92 93 248 53 137 255 40 161 241 29 159 228 27 131 226 31 105 224 49 64 194 71 26 112 54 10 46 32 2 12 9 0 1 1 3 3 2 4 4 2 3 4 3 1 2 4 1 5 7 9 39 26 29 105 55 57 177 75 66 212 75 66 218 72 70 220 80 51 156 68 14 61 26 3 17 7 1 6 2 8 15 5 33 46 17 65 85 30 101 134 48 113 162 58 119 175 56 130 184 50 122 171 46 127 166 64 96 122 56 52 62 32 35 38 23 18 19 12 3 4 1 0 1 0 2 4 3 3 7 7 2 7 6 1 4 3 0 3 1 2 5 2 10 16 7 
1 4 1 3 9 3 7 12 4 15 20 7 22 26 10 23 27 10 22 30 13 15 22 9 9 14 6 3 5 2 1 3 1 3 10 3 11 43 18 27 105 47 41 186 81 65 239 81 111 246 50 169 255 36 209 244 22 220 239 20 182 239 24 139 237 40 84 220 70 38 142 66 12 60 37 2 15 10 0 1 1 4 4 3 9 8 6 11 9 9 3 3 6 1 2 4 2 10 8 13 50 26 33 111 48 44 149 57 41 147 51 39 134 51 27 86 39 7 29 12 1 5 2 3 8 3 18 30 12 51 76 31 83 124 44 115 168 58 130 188 63 128 186 52 138 198 46 131 180 42 125 164 51 101 124 48 60 71 33 33 39 20 10 15 7 1 3 1 1 6 2 5 18 9 11 36 20 18 50 28 22 53 32 15 36 20 7 16 6 4 10 3 
10 39 24 4 18 10 1 4 1 1 3 1 4 5 2 6 6 3 7 8 5 5 6 4 4 6 4 1 3 1 1 3 1 5 14 7 14 46 23 26 97 47 39 166 75 66 220 79 111 235 49 162 239 29 217 233 16 250 251 16 213 246 18 154 237 29 100 237 67 56 184 82 15 75 44 2 20 13 0 3 1 7 8 4 16 14 9 23 20 17 10 8 13 3 4 7 1 3 3 4 17 9 12 46 19 23 86 35 25 95 38 20 73 31 14 41 22 3 12 6 1 3 2 8 12 7 28 45 21 64 98 42 91 145 51 111 180 56 133 198 59 127 186 46 137 188 42 144 184 45 122 147 41 88 105 35 51 63 25 14 24 8 2 9 2 1 10 2 6 39 14 20 82 30 38 130 48 50 152 54 64 170 65 67 165 65 46 117 44 27 80 26 
50 153 104 24 83 53 7 26 14 5 12 7 4 6 3 2 2 1 2 2 2 3 3 2 2 2 3 1 1 1 1 2 2 3 9 6 9 30 18 21 69 38 41 138 73 73 210 90 101 235 61 139 239 37 192 228 20 228 248 18 191 239 17 141 228 26 97 239 64 65 204 89 20 89 52 2 22 13 0 4 1 8 11 5 19 19 9 33 31 19 22 22 18 12 14 13 3 5 4 2 7 4 2 14 5 9 39 17 16 56 27 13 41 22 8 20 13 1 4 3 3 4 4 16 20 14 35 50 27 66 101 44 87 145 50 101 167 49 124 188 51 119 171 42 130 175 47 137 171 52 106 121 40 63 71 23 24 32 10 2 7 1 0 7 1 3 31 9 18 91 28 56 177 57 103 242 69 104 230 53 101 215 44 106 224 49 101 224 60 99 223 62 
53 224 122 44 175 94 29 92 51 17 42 24 6 11 5 1 1 1 2 1 1 3 3 3 2 2 3 1 2 2 1 2 3 2 4 4 4 11 10 11 30 22 29 77 53 51 141 78 72 208 74 102 246 60 150 250 41 177 255 36 152 255 29 122 248 38 95 255 77 66 206 91 21 83 48 2 19 10 1 4 1 12 18 7 25 32 11 45 52 20 38 49 19 29 37 17 12 16 9 4 7 3 0 4 1 1 10 3 4 17 8 4 14 8 3 7 6 0 1 1 5 5 5 22 22 18 36 46 26 67 92 44 96 141 55 112 166 54 136 196 60 133 184 60 111 157 59 96 124 51 78 80 36 41 41 18 9 13 5 1 6 1 2 26 9 17 88 34 65 194 66 104 230 56 154 237 37 184 237 25 218 255 27 210 255 32 159 255 31 128 241 28 
50 255 121 46 209 101 28 112 52 14 45 21 5 11 5 1 2 1 2 2 1 3 3 3 6 6 7 4 5 6 3 3 4 1 3 3 1 3 3 3 9 8 12 30 24 22 65 39 33 128 54 57 190 62 100 222 57 118 237 49 104 237 41 96 245 53 82 248 81 53 177 78 20 72 40 3 15 9 1 5 2 20 28 13 39 54 19 62 84 27 58 81 21 49 66 19 33 42 19 12 18 8 1 4 1 1 4 1 1 5 2 2 5 4 3 5 5 1 1 2 9 9 10 27 27 22 36 40 25 59 71 37 82 104 45 83 113 38 98 134 40 87 125 40 73 109 49 41 59 29 33 33 18 18 17 9 2 5 2 1 10 4 12 65 34 40 157 70 78 224 72 115 239 47 178 235 24 228 239 15 254 253 14 224 248 12 166 250 15 151 255 20 
44 248 105 39 193 83 24 104 41 8 31 10 2 6 1 2 2 1 4 4 2 7 8 5 12 14 12 10 13 10 11 12 11 9 11 9 3 5 4 1 2 1 1 6 4 4 20 11 10 59 29 32 129 59 60 173 68 76 205 71 78 239 72 72 244 77 60 213 81 45 154 71 18 58 34 2 9 5 4 9 6 23 34 18 48 74 28 87 125 41 100 139 32 85 115 25 61 83 29 29 39 16 11 15 6 4 6 2 1 2 1 0 1 1 1 2 2 2 3 3 6 7 7 20 20 17 33 32 23 45 44 26 55 57 27 63 71 28 68 90 30 53 78 27 31 52 27 24 36 24 19 19 14 5 4 3 1 4 3 6 22 16 17 86 51 48 182 87 79 239 79 115 255 51 188 255 28 230 251 17 239 246 12 208 244 10 161 253 14 139 255 17 
51 229 104 28 139 57 8 49 16 2 11 2 1 3 0 5 5 2 13 15 8 24 27 16 23 30 18 24 33 19 27 35 21 25 33 19 17 24 13 8 14 6 2 8 3 1 6 1 0 10 4 6 39 19 23 86 40 41 139 62 43 175 69 43 186 73 45 179 78 39 130 65 14 41 25 2 6 4 5 10 8 36 51 33 73 111 51 115 164 57 134 178 39 128 166 35 96 128 40 49 66 24 23 27 11 10 10 5 3 3 2 1 1 1 1 2 1 1 2 2 1 3 1 6 9 5 16 15 10 29 26 16 38 33 18 36 37 16 31 41 14 18 30 9 16 29 16 8 14 10 5 5 4 2 2 2 3 6 6 11 33 27 23 93 61 45 173 89 66 226 78 91 241 54 134 245 33 162 239 21 173 237 18 168 246 20 139 255 28 122 255 30 
35 131 70 12 58 26 2 13 4 1 4 1 5 6 2 16 15 8 31 33 18 42 51 26 48 68 31 55 80 35 57 81 33 49 71 27 43 64 23 31 53 18 13 31 7 3 12 2 2 5 1 2 6 3 3 15 6 11 48 22 18 93 42 26 127 60 29 122 59 15 67 31 6 21 13 1 3 2 7 12 11 49 67 49 93 136 70 128 177 64 147 178 37 149 178 35 131 173 51 75 104 34 40 45 18 20 20 9 5 5 3 1 2 1 0 2 1 0 3 1 1 5 1 2 7 2 4 6 3 9 9 5 14 13 7 14 15 7 14 21 7 9 16 5 5 11 4 1 4 1 1 2 1 1 3 2 5 11 10 14 38 31 21 77 53 32 130 72 58 210 91 70 246 80 91 255 68 100 255 56 108 255 56 111 255 61 94 237 62 73 206 52 
14 48 29 3 18 9 1 5 2 4 6 3 17 16 10 34 33 20 48 57 29 58 79 34 76 111 44 89 133 49 98 139 48 86 122 37 77 112 34 69 108 32 48 87 23 33 56 16 25 27 12 7 7 3 1 3 1 2 11 4 4 32 13 9 59 28 13 66 33 5 30 13 4 11 7 2 5 3 18 24 19 71 92 65 116 162 81 147 198 68 164 192 38 168 194 35 144 188 49 98 133 42 57 67 26 26 29 14 4 5 3 1 3 1 0 4 1 1 9 3 0 7 1 0 6 1 0 2 0 0 2 0 1 2 0 1 2 0 1 4 1 1 4 0 1 4 1 0 1 0 1 2 1 2 4 2 4 8 6 6 17 13 7 30 18 12 56 29 18 93 38 27 129 44 38 162 52 45 175 55 52 180 62 55 168 64 41 127 50 25 89 34 
5 14 11 2 6 4 2 3 2 9 9 8 27 26 19 47 50 31 66 87 41 86 127 50 96 150 50 113 171 51 133 186 55 136 182 52 128 169 49 111 155 44 85 134 35 72 107 32 62 63 27 29 25 11 9 9 3 4 8 3 0 7 2 1 10 3 4 22 10 4 16 8 1 4 2 4 6 4 30 38 24 85 107 58 125 169 69 164 214 64 182 212 40 184 208 36 152 192 44 125 164 51 71 91 37 27 37 17 2 5 2 1 5 2 2 14 5 6 30 11 7 35 11 7 35 12 5 23 9 5 19 9 4 14 8 2 8 4 2 7 3 1 4 1 1 3 0 0 1 0 1 2 0 1 2 1 1 3 2 1 4 2 1 5 2 3 12 4 4 21 6 6 33 11 10 47 18 14 58 27 22 67 38 29 66 45 25 50 37 17 34 24 
1 3 3 1 2 2 5 5 5 17 17 13 34 36 25 49 62 32 71 106 45 100 157 56 113 186 54 119 184 44 136 182 42 152 190 47 162 196 54 150 186 52 122 164 47 106 142 47 87 105 42 64 70 32 36 36 16 17 19 7 2 5 1 0 2 0 1 5 2 1 4 2 1 2 1 7 8 4 41 48 22 87 108 41 123 168 47 162 214 47 178 209 32 182 210 32 159 194 40 146 181 57 71 96 37 19 34 13 0 4 1 2 12 5 8 35 14 20 68 29 24 83 32 26 93 38 21 78 36 18 67 36 14 49 31 7 29 18 5 18 11 2 8 4 2 4 1 1 2 0 1 2 1 1 2 1 3 4 2 3 6 3 3 5 1 3 8 2 1 4 0 1 5 1 0 5 2 1 5 3 1 7 6 2 8 8 3 8 7 3 6 6 
0 1 1 1 2 1 6 7 5 18 20 14 28 37 21 38 61 26 57 104 35 82 150 44 114 192 49 122 186 41 137 175 36 157 173 38 173 180 50 179 188 58 166 184 62 138 177 66 104 160 66 85 134 58 61 75 32 40 41 17 16 18 8 4 6 2 2 4 2 1 2 1 6 6 4 16 15 6 55 58 20 103 122 32 141 188 37 172 233 36 177 226 25 192 233 31 162 189 37 151 179 56 56 83 28 10 27 8 0 5 1 6 30 15 26 80 40 48 131 62 55 158 69 58 176 80 43 155 75 34 132 72 27 102 65 18 67 46 11 38 26 5 15 9 2 3 2 3 3 2 6 6 5 9 9 9 15 17 14 22 27 17 19 28 10 21 31 10 16 24 7 12 16 6 7 8 5 4 5 5 2 4 4 1 3 2 0 3 1 0 4 1 
1 1 1 2 3 2 5 6 4 10 14 7 17 26 12 27 50 17 47 96 28 72 144 37 97 171 36 128 192 41 163 198 42 173 184 42 184 177 48 190 183 58 177 179 65 139 175 66 105 188 75 99 179 77 82 106 46 63 64 29 39 36 19 17 15 9 8 9 8 4 5 5 9 7 5 15 13 4 47 49 11 98 113 21 142 190 28 164 228 26 168 222 19 190 237 29 166 189 37 146 174 53 45 72 22 7 23 6 0 7 1 17 59 34 59 139 80 87 200 107 83 218 102 88 248 119 67 226 115 52 196 112 41 152 97 25 95 65 11 43 29 2 10 6 1 1 1 4 3 3 17 14 17 29 26 28 40 42 37 53 62 43 51 68 32 56 74 32 57 66 30 45 46 24 35 29 24 24 19 21 10 11 11 2 5 3 0 3 0 0 3 0 
