P3
8 8
255
30 86 32 64 85 28 44 74 25 42 79 29 68 121 27 71 134 29 119 145 40 65 90 29 
166 255 38 12 48 21 36 62 21 42 95 31 48 67 28 19 44 20 51 71 24 27 62 28 
32 107 34 76 101 29 116 140 38 49 101 28 42 73 27 43 96 26 83 173 39 0 0 7 
20 25 13 32 64 22 16 28 15 52 117 33 32 56 18 102 135 34 25 58 22 65 82 32 
42 83 26 79 157 34 69 93 36 42 57 24 18 56 22 95 120 31 36 66 21 65 103 32 
96 125 33 24 47 19 32 50 21 25 48 20 133 250 48 7 32 15 51 106 31 38 85 26 
53 76 26 21 56 21 91 199 50 12 30 16 25 72 24 67 94 32 52 75 30 56 105 23 
17 42 20 80 103 32 26 65 26 85 115 33 48 63 19 13 35 20 17 36 16 72 143 34 
