P3
16 16
255
1 16 14 6 9 11 84 105 38 145 191 47 112 147 50 10 12 7 8 0 5 114 147 44 46 74 34 112 182 21 189 255 38 8 76 37 62 63 19 147 190 53 83 120 36 6 3 4 
55 197 70 36 116 42 6 4 5 40 60 27 32 48 21 17 51 18 50 140 46 16 39 17 0 1 6 87 188 48 112 204 38 5 26 16 123 160 45 194 231 40 90 110 39 4 26 19 
194 255 16 162 251 41 13 101 44 0 0 0 0 0 0 37 116 44 157 255 62 36 95 37 14 18 8 15 43 22 0 16 13 0 0 2 69 80 34 107 153 43 27 42 16 24 78 41 
204 245 9 175 255 32 14 100 44 13 10 7 51 63 26 19 37 17 21 64 25 10 18 10 117 156 54 112 153 52 7 3 5 12 47 28 2 41 22 5 9 10 5 0 1 22 100 48 
78 233 58 73 201 61 2 19 14 99 123 35 176 228 41 109 129 48 0 0 2 0 21 14 38 52 22 49 55 25 5 29 19 103 224 59 139 238 44 19 72 33 0 0 0 8 44 25 
8 58 35 7 48 26 20 26 13 141 189 47 170 205 41 50 58 28 45 118 37 154 248 41 49 144 48 0 0 2 0 0 7 76 168 31 185 255 29 54 153 52 0 0 1 6 4 2 
17 16 5 0 0 0 11 0 3 46 55 25 35 41 25 0 9 7 67 185 62 137 237 44 41 123 42 16 24 9 66 85 36 12 35 19 38 127 48 25 78 40 19 24 10 58 79 38 
75 97 39 1 5 5 10 93 37 12 59 27 0 0 0 6 10 5 7 16 13 0 21 18 0 0 0 56 74 31 168 231 46 144 173 35 14 19 13 0 0 0 69 94 39 153 195 59 
50 55 27 40 97 30 189 255 40 75 183 50 12 18 13 96 134 47 71 100 38 9 5 2 0 0 3 10 18 9 126 156 38 179 218 46 49 64 20 0 0 0 38 46 21 123 151 49 
0 0 0 36 124 39 151 231 46 33 83 23 44 62 28 153 209 69 84 117 40 1 8 6 36 142 56 32 106 43 17 19 15 52 75 26 13 30 15 56 140 55 39 98 27 9 13 12 
31 40 18 35 43 23 2 27 18 0 0 2 23 19 8 75 86 34 37 36 16 1 44 28 141 243 48 163 255 35 14 91 32 0 0 0 10 60 29 148 255 50 135 240 46 1 32 22 
165 205 48 167 219 48 50 72 28 1 5 5 8 63 31 0 19 12 4 0 0 6 45 25 142 239 38 172 255 31 20 83 39 9 7 4 13 21 14 27 81 32 21 62 27 34 43 18 
81 92 25 84 118 35 17 19 10 23 115 47 134 255 55 78 166 47 0 9 10 1 0 3 46 153 56 56 178 59 8 13 9 94 134 44 110 148 53 15 6 8 0 0 2 10 37 20 
14 83 46 0 0 0 0 0 0 17 81 43 151 244 44 125 243 57 3 36 24 25 24 9 6 19 11 2 16 10 30 39 22 119 175 57 93 114 36 7 38 19 105 195 44 145 217 31 
18 82 36 21 20 11 49 71 30 20 30 10 11 59 26 28 125 50 16 30 23 123 161 50 60 75 21 0 0 0 10 7 4 26 31 13 2 0 2 6 55 34 103 221 53 135 224 32 
1 0 0 52 83 33 139 192 49 146 175 54 53 67 29 0 0 0 36 45 19 180 226 45 98 120 30 8 41 23 37 121 58 5 32 22 3 1 1 18 22 12 6 24 14 0 17 18 
